<mxfile host="app.diagrams.net" modified="2022-06-13T08:19:09.794Z" agent="5.0 (Windows)" etag="fcz2vjP1_dww5cA7f8Mc" version="18.1.1" type="github">
  <diagram id="kgpKYQtTHZ0yAKxKKP6v" name="Page-1">
    <mxGraphModel dx="867" dy="498" grid="1" gridSize="10" guides="1" tooltips="1" connect="1" arrows="1" fold="1" page="1" pageScale="1" pageWidth="850" pageHeight="1100" math="0" shadow="0">
      <root>
        <mxCell id="0" />
        <mxCell id="1" parent="0" />
        <mxCell id="3nuBFxr9cyL0pnOWT2aG-1" value=":User" style="shape=umlLifeline;perimeter=lifelinePerimeter;container=1;collapsible=0;recursiveResize=0;rounded=0;shadow=0;strokeWidth=1;" parent="1" vertex="1">
          <mxGeometry x="119" y="80" width="100" height="210" as="geometry" />
        </mxCell>
        <mxCell id="3nuBFxr9cyL0pnOWT2aG-2" value="" style="points=[];perimeter=orthogonalPerimeter;rounded=0;shadow=0;strokeWidth=1;" parent="3nuBFxr9cyL0pnOWT2aG-1" vertex="1">
          <mxGeometry x="45" y="70" width="10" height="60" as="geometry" />
        </mxCell>
        <mxCell id="3nuBFxr9cyL0pnOWT2aG-5" value=":UI Aplikasi" style="shape=umlLifeline;perimeter=lifelinePerimeter;container=1;collapsible=0;recursiveResize=0;rounded=0;shadow=0;strokeWidth=1;" parent="1" vertex="1">
          <mxGeometry x="321" y="80" width="100" height="430" as="geometry" />
        </mxCell>
        <mxCell id="3nuBFxr9cyL0pnOWT2aG-6" value="" style="points=[];perimeter=orthogonalPerimeter;rounded=0;shadow=0;strokeWidth=1;" parent="3nuBFxr9cyL0pnOWT2aG-5" vertex="1">
          <mxGeometry x="45" y="80" width="10" height="50" as="geometry" />
        </mxCell>
        <mxCell id="LG617nG7bpmIxUYU5paF-6" value="" style="points=[];perimeter=orthogonalPerimeter;rounded=0;shadow=0;strokeWidth=1;" vertex="1" parent="3nuBFxr9cyL0pnOWT2aG-5">
          <mxGeometry x="45" y="170" width="10" height="80" as="geometry" />
        </mxCell>
        <mxCell id="LG617nG7bpmIxUYU5paF-7" value="" style="edgeStyle=orthogonalEdgeStyle;rounded=0;orthogonalLoop=1;jettySize=auto;html=1;dashed=1;endArrow=none;endFill=0;" edge="1" parent="3nuBFxr9cyL0pnOWT2aG-5" source="3nuBFxr9cyL0pnOWT2aG-6" target="LG617nG7bpmIxUYU5paF-6">
          <mxGeometry relative="1" as="geometry" />
        </mxCell>
        <mxCell id="3nuBFxr9cyL0pnOWT2aG-8" value="Â 1. pilih menu untuk registrasi" style="verticalAlign=bottom;endArrow=block;entryX=0;entryY=0;shadow=0;strokeWidth=1;" parent="1" source="3nuBFxr9cyL0pnOWT2aG-2" target="3nuBFxr9cyL0pnOWT2aG-6" edge="1">
          <mxGeometry relative="1" as="geometry">
            <mxPoint x="275" y="160" as="sourcePoint" />
          </mxGeometry>
        </mxCell>
        <mxCell id="3nuBFxr9cyL0pnOWT2aG-9" value="2. tampilkan form input data" style="verticalAlign=bottom;endArrow=block;entryX=1.1;entryY=0.259;shadow=0;strokeWidth=1;entryDx=0;entryDy=0;entryPerimeter=0;exitX=-0.138;exitY=0.822;exitDx=0;exitDy=0;exitPerimeter=0;" parent="1" source="3nuBFxr9cyL0pnOWT2aG-6" edge="1">
          <mxGeometry relative="1" as="geometry">
            <mxPoint x="360" y="202" as="sourcePoint" />
            <mxPoint x="175.9999999999999" y="201.53999999999996" as="targetPoint" />
          </mxGeometry>
        </mxCell>
        <mxCell id="LG617nG7bpmIxUYU5paF-1" value=":Sistem" style="shape=umlLifeline;perimeter=lifelinePerimeter;container=1;collapsible=0;recursiveResize=0;rounded=0;shadow=0;strokeWidth=1;" vertex="1" parent="1">
          <mxGeometry x="480" y="80" width="100" height="310" as="geometry" />
        </mxCell>
        <mxCell id="LG617nG7bpmIxUYU5paF-2" value="" style="points=[];perimeter=orthogonalPerimeter;rounded=0;shadow=0;strokeWidth=1;" vertex="1" parent="LG617nG7bpmIxUYU5paF-1">
          <mxGeometry x="45" y="230" width="10" height="80" as="geometry" />
        </mxCell>
        <mxCell id="LG617nG7bpmIxUYU5paF-17" style="edgeStyle=orthogonalEdgeStyle;rounded=0;orthogonalLoop=1;jettySize=auto;html=1;entryX=0.989;entryY=0.88;entryDx=0;entryDy=0;entryPerimeter=0;" edge="1" parent="LG617nG7bpmIxUYU5paF-1" source="LG617nG7bpmIxUYU5paF-2" target="LG617nG7bpmIxUYU5paF-2">
          <mxGeometry relative="1" as="geometry">
            <Array as="points">
              <mxPoint x="100" y="240" />
              <mxPoint x="100" y="300" />
              <mxPoint x="70" y="300" />
            </Array>
          </mxGeometry>
        </mxCell>
        <mxCell id="LG617nG7bpmIxUYU5paF-8" style="edgeStyle=orthogonalEdgeStyle;rounded=0;orthogonalLoop=1;jettySize=auto;html=1;" edge="1" parent="1" source="LG617nG7bpmIxUYU5paF-4" target="LG617nG7bpmIxUYU5paF-6">
          <mxGeometry relative="1" as="geometry">
            <Array as="points">
              <mxPoint x="290" y="260" />
              <mxPoint x="290" y="260" />
            </Array>
          </mxGeometry>
        </mxCell>
        <mxCell id="LG617nG7bpmIxUYU5paF-12" style="edgeStyle=orthogonalEdgeStyle;rounded=0;orthogonalLoop=1;jettySize=auto;html=1;" edge="1" parent="1">
          <mxGeometry relative="1" as="geometry">
            <mxPoint x="175" y="291" as="sourcePoint" />
            <mxPoint x="366" y="291" as="targetPoint" />
            <Array as="points">
              <mxPoint x="220" y="291" />
              <mxPoint x="220" y="291" />
            </Array>
          </mxGeometry>
        </mxCell>
        <mxCell id="LG617nG7bpmIxUYU5paF-4" value="" style="points=[];perimeter=orthogonalPerimeter;rounded=0;shadow=0;strokeWidth=1;" vertex="1" parent="1">
          <mxGeometry x="165" y="250" width="10" height="260" as="geometry" />
        </mxCell>
        <mxCell id="LG617nG7bpmIxUYU5paF-11" value="&amp;nbsp;3. input data pada form" style="text;html=1;align=center;verticalAlign=middle;resizable=0;points=[];autosize=1;strokeColor=none;fillColor=none;" vertex="1" parent="1">
          <mxGeometry x="200" y="240" width="140" height="20" as="geometry" />
        </mxCell>
        <mxCell id="LG617nG7bpmIxUYU5paF-13" value="4. tekan tombol submit" style="text;html=1;align=center;verticalAlign=middle;resizable=0;points=[];autosize=1;strokeColor=none;fillColor=none;" vertex="1" parent="1">
          <mxGeometry x="200" y="270" width="140" height="20" as="geometry" />
        </mxCell>
        <mxCell id="LG617nG7bpmIxUYU5paF-15" style="edgeStyle=orthogonalEdgeStyle;rounded=0;orthogonalLoop=1;jettySize=auto;html=1;" edge="1" parent="1" source="LG617nG7bpmIxUYU5paF-6">
          <mxGeometry relative="1" as="geometry">
            <mxPoint x="530" y="320" as="targetPoint" />
            <Array as="points">
              <mxPoint x="480" y="320" />
              <mxPoint x="480" y="320" />
            </Array>
          </mxGeometry>
        </mxCell>
        <mxCell id="LG617nG7bpmIxUYU5paF-16" value="5. kirim data" style="text;html=1;align=center;verticalAlign=middle;resizable=0;points=[];autosize=1;strokeColor=none;fillColor=none;" vertex="1" parent="1">
          <mxGeometry x="400" y="300" width="80" height="20" as="geometry" />
        </mxCell>
        <mxCell id="LG617nG7bpmIxUYU5paF-18" value="6. validasi data" style="text;html=1;align=center;verticalAlign=middle;resizable=0;points=[];autosize=1;strokeColor=none;fillColor=none;" vertex="1" parent="1">
          <mxGeometry x="540" y="300" width="100" height="20" as="geometry" />
        </mxCell>
        <mxCell id="LG617nG7bpmIxUYU5paF-19" style="edgeStyle=orthogonalEdgeStyle;rounded=0;orthogonalLoop=1;jettySize=auto;html=1;" edge="1" parent="1" source="LG617nG7bpmIxUYU5paF-2" target="LG617nG7bpmIxUYU5paF-4">
          <mxGeometry relative="1" as="geometry">
            <mxPoint x="210" y="370" as="targetPoint" />
            <Array as="points">
              <mxPoint x="360" y="380" />
              <mxPoint x="360" y="380" />
            </Array>
          </mxGeometry>
        </mxCell>
        <mxCell id="LG617nG7bpmIxUYU5paF-20" value="7. tampilkan pesan kesalahan" style="text;html=1;align=center;verticalAlign=middle;resizable=0;points=[];autosize=1;strokeColor=none;fillColor=none;" vertex="1" parent="1">
          <mxGeometry x="255" y="360" width="170" height="20" as="geometry" />
        </mxCell>
        <mxCell id="LG617nG7bpmIxUYU5paF-25" style="edgeStyle=orthogonalEdgeStyle;rounded=0;orthogonalLoop=1;jettySize=auto;html=1;" edge="1" parent="1" source="LG617nG7bpmIxUYU5paF-21">
          <mxGeometry relative="1" as="geometry">
            <mxPoint x="177" y="500" as="targetPoint" />
            <Array as="points">
              <mxPoint x="177" y="500" />
            </Array>
          </mxGeometry>
        </mxCell>
        <mxCell id="LG617nG7bpmIxUYU5paF-21" value="" style="points=[];perimeter=orthogonalPerimeter;rounded=0;shadow=0;strokeWidth=1;" vertex="1" parent="1">
          <mxGeometry x="525" y="430" width="10" height="80" as="geometry" />
        </mxCell>
        <mxCell id="LG617nG7bpmIxUYU5paF-22" value="" style="edgeStyle=orthogonalEdgeStyle;rounded=0;orthogonalLoop=1;jettySize=auto;html=1;dashed=1;endArrow=none;endFill=0;" edge="1" parent="1" source="LG617nG7bpmIxUYU5paF-2" target="LG617nG7bpmIxUYU5paF-21">
          <mxGeometry relative="1" as="geometry" />
        </mxCell>
        <mxCell id="LG617nG7bpmIxUYU5paF-23" style="edgeStyle=orthogonalEdgeStyle;rounded=0;orthogonalLoop=1;jettySize=auto;html=1;entryX=1.02;entryY=0.78;entryDx=0;entryDy=0;entryPerimeter=0;" edge="1" parent="1" source="LG617nG7bpmIxUYU5paF-2" target="LG617nG7bpmIxUYU5paF-21">
          <mxGeometry relative="1" as="geometry">
            <Array as="points">
              <mxPoint x="570" y="390" />
              <mxPoint x="570" y="492" />
            </Array>
          </mxGeometry>
        </mxCell>
        <mxCell id="LG617nG7bpmIxUYU5paF-24" value="8. simpan data" style="text;html=1;align=center;verticalAlign=middle;resizable=0;points=[];autosize=1;strokeColor=none;fillColor=none;" vertex="1" parent="1">
          <mxGeometry x="570" y="390" width="90" height="20" as="geometry" />
        </mxCell>
        <mxCell id="LG617nG7bpmIxUYU5paF-26" value="9.. tampil pesan berhasil registrasi" style="text;html=1;align=center;verticalAlign=middle;resizable=0;points=[];autosize=1;strokeColor=none;fillColor=none;" vertex="1" parent="1">
          <mxGeometry x="240" y="480" width="200" height="20" as="geometry" />
        </mxCell>
        <mxCell id="LG617nG7bpmIxUYU5paF-29" value=":User" style="shape=umlLifeline;perimeter=lifelinePerimeter;container=1;collapsible=0;recursiveResize=0;rounded=0;shadow=0;strokeWidth=1;" vertex="1" parent="1">
          <mxGeometry x="710" y="80" width="100" height="210" as="geometry" />
        </mxCell>
        <mxCell id="LG617nG7bpmIxUYU5paF-30" value="" style="points=[];perimeter=orthogonalPerimeter;rounded=0;shadow=0;strokeWidth=1;" vertex="1" parent="LG617nG7bpmIxUYU5paF-29">
          <mxGeometry x="45" y="70" width="10" height="60" as="geometry" />
        </mxCell>
        <mxCell id="LG617nG7bpmIxUYU5paF-31" value=":UI Aplikasi" style="shape=umlLifeline;perimeter=lifelinePerimeter;container=1;collapsible=0;recursiveResize=0;rounded=0;shadow=0;strokeWidth=1;" vertex="1" parent="1">
          <mxGeometry x="912" y="80" width="100" height="430" as="geometry" />
        </mxCell>
        <mxCell id="LG617nG7bpmIxUYU5paF-32" value="" style="points=[];perimeter=orthogonalPerimeter;rounded=0;shadow=0;strokeWidth=1;" vertex="1" parent="LG617nG7bpmIxUYU5paF-31">
          <mxGeometry x="45" y="80" width="10" height="50" as="geometry" />
        </mxCell>
        <mxCell id="LG617nG7bpmIxUYU5paF-33" value="" style="points=[];perimeter=orthogonalPerimeter;rounded=0;shadow=0;strokeWidth=1;" vertex="1" parent="LG617nG7bpmIxUYU5paF-31">
          <mxGeometry x="45" y="170" width="10" height="80" as="geometry" />
        </mxCell>
        <mxCell id="LG617nG7bpmIxUYU5paF-34" value="" style="edgeStyle=orthogonalEdgeStyle;rounded=0;orthogonalLoop=1;jettySize=auto;html=1;dashed=1;endArrow=none;endFill=0;" edge="1" parent="LG617nG7bpmIxUYU5paF-31" source="LG617nG7bpmIxUYU5paF-32" target="LG617nG7bpmIxUYU5paF-33">
          <mxGeometry relative="1" as="geometry" />
        </mxCell>
        <mxCell id="LG617nG7bpmIxUYU5paF-35" value="Â 1. pilih menu untuk login" style="verticalAlign=bottom;endArrow=block;entryX=0;entryY=0;shadow=0;strokeWidth=1;" edge="1" parent="1" source="LG617nG7bpmIxUYU5paF-30" target="LG617nG7bpmIxUYU5paF-32">
          <mxGeometry relative="1" as="geometry">
            <mxPoint x="866" y="160" as="sourcePoint" />
          </mxGeometry>
        </mxCell>
        <mxCell id="LG617nG7bpmIxUYU5paF-36" value="2. tampilkan form input data" style="verticalAlign=bottom;endArrow=block;entryX=1.1;entryY=0.259;shadow=0;strokeWidth=1;entryDx=0;entryDy=0;entryPerimeter=0;exitX=-0.138;exitY=0.822;exitDx=0;exitDy=0;exitPerimeter=0;" edge="1" parent="1" source="LG617nG7bpmIxUYU5paF-32">
          <mxGeometry relative="1" as="geometry">
            <mxPoint x="951" y="202" as="sourcePoint" />
            <mxPoint x="767" y="201.53999999999996" as="targetPoint" />
          </mxGeometry>
        </mxCell>
        <mxCell id="LG617nG7bpmIxUYU5paF-37" value=":Sistem" style="shape=umlLifeline;perimeter=lifelinePerimeter;container=1;collapsible=0;recursiveResize=0;rounded=0;shadow=0;strokeWidth=1;" vertex="1" parent="1">
          <mxGeometry x="1071" y="80" width="100" height="310" as="geometry" />
        </mxCell>
        <mxCell id="LG617nG7bpmIxUYU5paF-38" value="" style="points=[];perimeter=orthogonalPerimeter;rounded=0;shadow=0;strokeWidth=1;" vertex="1" parent="LG617nG7bpmIxUYU5paF-37">
          <mxGeometry x="45" y="230" width="10" height="80" as="geometry" />
        </mxCell>
        <mxCell id="LG617nG7bpmIxUYU5paF-39" style="edgeStyle=orthogonalEdgeStyle;rounded=0;orthogonalLoop=1;jettySize=auto;html=1;entryX=0.989;entryY=0.88;entryDx=0;entryDy=0;entryPerimeter=0;" edge="1" parent="LG617nG7bpmIxUYU5paF-37" source="LG617nG7bpmIxUYU5paF-38" target="LG617nG7bpmIxUYU5paF-38">
          <mxGeometry relative="1" as="geometry">
            <Array as="points">
              <mxPoint x="100" y="240" />
              <mxPoint x="100" y="300" />
              <mxPoint x="70" y="300" />
            </Array>
          </mxGeometry>
        </mxCell>
        <mxCell id="LG617nG7bpmIxUYU5paF-40" style="edgeStyle=orthogonalEdgeStyle;rounded=0;orthogonalLoop=1;jettySize=auto;html=1;" edge="1" parent="1" source="LG617nG7bpmIxUYU5paF-42" target="LG617nG7bpmIxUYU5paF-33">
          <mxGeometry relative="1" as="geometry">
            <Array as="points">
              <mxPoint x="881" y="260" />
              <mxPoint x="881" y="260" />
            </Array>
          </mxGeometry>
        </mxCell>
        <mxCell id="LG617nG7bpmIxUYU5paF-41" style="edgeStyle=orthogonalEdgeStyle;rounded=0;orthogonalLoop=1;jettySize=auto;html=1;" edge="1" parent="1">
          <mxGeometry relative="1" as="geometry">
            <mxPoint x="766" y="291" as="sourcePoint" />
            <mxPoint x="957" y="291" as="targetPoint" />
            <Array as="points">
              <mxPoint x="811" y="291" />
              <mxPoint x="811" y="291" />
            </Array>
          </mxGeometry>
        </mxCell>
        <mxCell id="LG617nG7bpmIxUYU5paF-42" value="" style="points=[];perimeter=orthogonalPerimeter;rounded=0;shadow=0;strokeWidth=1;" vertex="1" parent="1">
          <mxGeometry x="756" y="250" width="10" height="260" as="geometry" />
        </mxCell>
        <mxCell id="LG617nG7bpmIxUYU5paF-43" value="&amp;nbsp;3. input data pada form" style="text;html=1;align=center;verticalAlign=middle;resizable=0;points=[];autosize=1;strokeColor=none;fillColor=none;" vertex="1" parent="1">
          <mxGeometry x="791" y="240" width="140" height="20" as="geometry" />
        </mxCell>
        <mxCell id="LG617nG7bpmIxUYU5paF-44" value="4. tekan tombol submit" style="text;html=1;align=center;verticalAlign=middle;resizable=0;points=[];autosize=1;strokeColor=none;fillColor=none;" vertex="1" parent="1">
          <mxGeometry x="791" y="270" width="140" height="20" as="geometry" />
        </mxCell>
        <mxCell id="LG617nG7bpmIxUYU5paF-45" style="edgeStyle=orthogonalEdgeStyle;rounded=0;orthogonalLoop=1;jettySize=auto;html=1;" edge="1" parent="1" source="LG617nG7bpmIxUYU5paF-33">
          <mxGeometry relative="1" as="geometry">
            <mxPoint x="1121" y="320" as="targetPoint" />
            <Array as="points">
              <mxPoint x="1071" y="320" />
              <mxPoint x="1071" y="320" />
            </Array>
          </mxGeometry>
        </mxCell>
        <mxCell id="LG617nG7bpmIxUYU5paF-46" value="5. kirim data" style="text;html=1;align=center;verticalAlign=middle;resizable=0;points=[];autosize=1;strokeColor=none;fillColor=none;" vertex="1" parent="1">
          <mxGeometry x="991" y="300" width="80" height="20" as="geometry" />
        </mxCell>
        <mxCell id="LG617nG7bpmIxUYU5paF-47" value="6. validasi data" style="text;html=1;align=center;verticalAlign=middle;resizable=0;points=[];autosize=1;strokeColor=none;fillColor=none;" vertex="1" parent="1">
          <mxGeometry x="1131" y="300" width="100" height="20" as="geometry" />
        </mxCell>
        <mxCell id="LG617nG7bpmIxUYU5paF-48" style="edgeStyle=orthogonalEdgeStyle;rounded=0;orthogonalLoop=1;jettySize=auto;html=1;" edge="1" parent="1" source="LG617nG7bpmIxUYU5paF-38" target="LG617nG7bpmIxUYU5paF-42">
          <mxGeometry relative="1" as="geometry">
            <mxPoint x="801" y="370" as="targetPoint" />
            <Array as="points">
              <mxPoint x="951" y="380" />
              <mxPoint x="951" y="380" />
            </Array>
          </mxGeometry>
        </mxCell>
        <mxCell id="LG617nG7bpmIxUYU5paF-49" value="7. tampilkan pesan kesalahan" style="text;html=1;align=center;verticalAlign=middle;resizable=0;points=[];autosize=1;strokeColor=none;fillColor=none;" vertex="1" parent="1">
          <mxGeometry x="846" y="360" width="170" height="20" as="geometry" />
        </mxCell>
        <mxCell id="LG617nG7bpmIxUYU5paF-50" style="edgeStyle=orthogonalEdgeStyle;rounded=0;orthogonalLoop=1;jettySize=auto;html=1;" edge="1" parent="1" source="LG617nG7bpmIxUYU5paF-51">
          <mxGeometry relative="1" as="geometry">
            <mxPoint x="768" y="500" as="targetPoint" />
            <Array as="points">
              <mxPoint x="768" y="500" />
            </Array>
          </mxGeometry>
        </mxCell>
        <mxCell id="LG617nG7bpmIxUYU5paF-51" value="" style="points=[];perimeter=orthogonalPerimeter;rounded=0;shadow=0;strokeWidth=1;" vertex="1" parent="1">
          <mxGeometry x="1116" y="430" width="10" height="80" as="geometry" />
        </mxCell>
        <mxCell id="LG617nG7bpmIxUYU5paF-52" value="" style="edgeStyle=orthogonalEdgeStyle;rounded=0;orthogonalLoop=1;jettySize=auto;html=1;dashed=1;endArrow=none;endFill=0;" edge="1" parent="1" source="LG617nG7bpmIxUYU5paF-38" target="LG617nG7bpmIxUYU5paF-51">
          <mxGeometry relative="1" as="geometry" />
        </mxCell>
        <mxCell id="LG617nG7bpmIxUYU5paF-53" style="edgeStyle=orthogonalEdgeStyle;rounded=0;orthogonalLoop=1;jettySize=auto;html=1;entryX=1.02;entryY=0.78;entryDx=0;entryDy=0;entryPerimeter=0;" edge="1" parent="1" source="LG617nG7bpmIxUYU5paF-38" target="LG617nG7bpmIxUYU5paF-51">
          <mxGeometry relative="1" as="geometry">
            <Array as="points">
              <mxPoint x="1161" y="390" />
              <mxPoint x="1161" y="492" />
            </Array>
          </mxGeometry>
        </mxCell>
        <mxCell id="LG617nG7bpmIxUYU5paF-54" value="8. simpan data" style="text;html=1;align=center;verticalAlign=middle;resizable=0;points=[];autosize=1;strokeColor=none;fillColor=none;" vertex="1" parent="1">
          <mxGeometry x="1161" y="390" width="90" height="20" as="geometry" />
        </mxCell>
        <mxCell id="LG617nG7bpmIxUYU5paF-55" value="9.. tampil pesan berhasil login" style="text;html=1;align=center;verticalAlign=middle;resizable=0;points=[];autosize=1;strokeColor=none;fillColor=none;" vertex="1" parent="1">
          <mxGeometry x="846" y="480" width="170" height="20" as="geometry" />
        </mxCell>
      </root>
    </mxGraphModel>
  </diagram>
</mxfile>
